<svg width="649" height="416" viewBox="0 0 649 416" fill="none" xmlns="http://www.w3.org/2000/svg">
<path d="M536.227 333.252H504.733V147.461C504.733 125.326 507.663 106.608 513.522 91.3086C527.194 55.5013 551.934 29.3783 587.741 12.9395C598.158 8.2194 607.842 5.04557 616.794 3.41797C624.932 1.95312 635.511 0.813802 648.532 0V27.5879C629.163 28.5645 613.294 31.9824 600.925 37.8418C572.767 51.5137 553.48 72.347 543.063 100.342C538.506 112.386 536.227 125 536.227 138.184V152.344H606.296V179.932H536.227V333.252Z" fill="white"/>
<path d="M438.083 0H469.577V333.252H438.083V0Z" fill="white"/>
<path d="M397.555 0V333.252H367.038V268.555C349.297 292.155 331.231 308.594 312.839 317.871C292.331 328.125 268.486 333.252 241.305 333.252H209.811V138.184C209.811 103.19 223.076 72.5911 249.606 46.3867C271.742 24.2513 299.167 9.92839 331.882 3.41797C342.949 1.13932 354.668 0 367.038 0H397.555ZM367.038 27.5879C345.716 28.5645 327.975 32.0638 313.815 38.0859C284.356 50.4557 263.441 69.5801 251.071 95.459C244.561 109.131 241.305 123.372 241.305 138.184V304.932C263.115 303.63 280.775 300.212 294.284 294.678C325.534 281.657 347.181 260.824 359.225 232.178C364.434 219.808 367.038 207.194 367.038 194.336V27.5879Z" fill="white"/>
<path d="M0.0945435 333.252V0H31.5887V152.588C53.3986 150.96 71.3022 147.054 85.2996 140.869C116.875 127.035 138.441 106.12 149.997 78.125C154.88 66.2435 157.321 54.1178 157.321 41.748V0H188.083V41.0156C188.083 76.3346 175.388 106.852 149.997 132.568C136.813 145.752 118.747 157.064 95.7977 166.504C118.747 176.107 136.813 187.5 149.997 200.684C175.388 226.4 188.083 256.917 188.083 292.236V333.252H157.321V291.504C157.321 264.974 147.23 241.374 127.048 220.703C111.911 205.078 92.868 193.685 69.9188 186.523C61.4552 183.919 48.6785 181.966 31.5887 180.664V333.252H0.0945435Z" fill="white"/>
<path d="M613.611 415.697H610.296V373.252H633.631C638.831 373.252 642.471 374.682 644.941 377.282C646.891 379.362 648.126 382.157 648.126 385.277C648.126 390.997 644.031 395.742 637.401 396.652L648.321 415.697H644.551L634.021 396.977H613.611V415.697ZM633.631 376.177H613.611V394.052H635.321C641.171 394.052 644.811 389.957 644.811 385.212C644.811 382.872 643.901 380.792 642.406 379.232C640.326 377.087 637.466 376.177 633.631 376.177Z" fill="white"/>
<path d="M539.121 415.697H535.676L555.371 373.252H558.881L578.576 415.697H574.936L568.241 401.072H545.816L539.121 415.697ZM556.866 377.022L547.051 398.407H567.006L557.256 377.022H556.866Z" fill="white"/>
<path d="M492.039 415.697H467.989V373.252H491.064C495.744 373.252 499.254 374.552 501.724 377.022C503.479 378.842 504.584 381.052 504.584 383.717C504.584 388.007 501.724 392.037 497.564 393.077C502.959 393.857 506.469 398.407 506.469 403.672C506.469 406.597 505.364 409.587 502.829 411.992C500.294 414.462 496.979 415.697 492.039 415.697ZM494.054 395.092H471.304V412.772H492.104C495.224 412.772 498.149 412.057 500.359 409.912C502.114 408.157 503.089 405.882 503.089 403.607C503.089 401.332 502.179 399.317 500.684 397.822C499.059 396.132 496.654 395.092 494.054 395.092ZM490.804 376.177H471.304V392.362H492.754C495.094 392.362 497.174 391.517 498.734 390.022C500.229 388.462 501.139 386.447 501.139 384.237C501.139 382.157 500.294 380.337 498.929 378.972C497.044 377.022 494.444 376.177 490.804 376.177Z" fill="white"/>
<path d="M398.069 373.252H401.969L384.549 395.352V415.697H381.234V395.352L363.814 373.252H367.974L382.989 392.362L398.069 373.252Z" fill="white"/>
<path d="M302.686 415.697H299.241L318.936 373.252H322.446L342.141 415.697H338.501L331.806 401.072H309.381L302.686 415.697ZM320.431 377.022L310.616 398.407H330.571L320.821 377.022H320.431Z" fill="white"/>
<path d="M248.832 415.697H232.062V373.252H248.832C257.022 373.252 261.572 375.657 265.797 379.492C269.632 383.327 271.842 388.592 271.842 394.442C271.842 400.357 269.502 405.752 265.602 409.652C261.377 413.422 257.087 415.697 248.832 415.697ZM235.377 412.772H248.702C255.917 412.772 259.362 410.757 263.002 407.572C266.317 404.192 268.397 399.577 268.397 394.442C268.397 389.372 266.447 384.757 263.067 381.442C259.492 378.192 255.852 376.177 248.702 376.177H235.377V412.772Z" fill="white"/>
<path d="M135.966 373.252H139.281V412.772H167.036V415.697H135.966V373.252Z" fill="white"/>
<path d="M74.62 373.252H77.935V412.772H105.69V415.697H74.62V373.252Z" fill="white"/>
<path d="M3.445 415.697H0L19.695 373.252H23.205L42.9 415.697H39.26L32.565 401.072H10.14L3.445 415.697ZM21.19 377.022L11.375 398.407H31.33L21.58 377.022H21.19Z" fill="white"/>
</svg>
